<?xml version="1.0" encoding="UTF-8"?>
<svg id="Layer_2" data-name="Layer 2" xmlns="http://www.w3.org/2000/svg" viewBox="0 0 1151.17 1215.65">
  <defs>
    <style>
      .cls-1 {
        fill: #afbbcd;
      }

      .cls-1, .cls-2, .cls-3, .cls-4, .cls-5, .cls-6, .cls-7, .cls-8, .cls-9 {
        stroke-width: 0px;
      }

      .cls-2 {
        fill: #a3afc1;
      }

      .cls-3 {
        fill: #714d7f;
      }

      .cls-4 {
        fill: #c7cfdb;
      }

      .cls-5 {
        fill: #f39200;
      }

      .cls-6 {
        fill: #fff;
      }

      .cls-10 {
        fill: #1d1d1b;
        font-family: Roboto-Black, Roboto;
        font-size: 100px;
        font-weight: 800;
      }

      .cls-7 {
        fill: #bdc7d7;
      }

      .cls-11 {
        letter-spacing: -.01em;
      }

      .cls-8 {
        fill: #aeb9cc;
      }

      .cls-9 {
        fill: #573562;
      }

      .cls-12 {
        letter-spacing: -.01em;
      }
    </style>
  </defs>
  <g id="Capa_1" data-name="Capa 1">
    <g>
      <g>
        <g>
          <path class="cls-6" d="M.21,566.93C.21,380.73.26,194.53,0,8.33,0,1.36,1.46,0,8.89,0c372.02.22,744.05.22,1116.07,0,7.43,0,8.9,1.37,8.89,8.33-.23,372.4-.23,744.8,0,1117.19,0,6.97-1.46,8.34-8.89,8.33-372.02-.22-744.05-.22-1116.07,0-7.43,0-8.9-1.36-8.89-8.33.26-186.2.21-372.4.21-558.6Z"/>
          <path class="cls-4" d="M167.4,356.23c18.45-60.5,50.24-113.88,95.84-160.22,68.01-69.12,151.32-111.32,250.57-124.65,118.91-15.97,226.53,10.49,322.43,78.43,12.87,9.12,25.5,18.51,36.48,29.68-.29,2.77,2,4.18,3.61,5.94,55.91,61.12,87.12,132.2,95.21,211.97,10.62,104.69-19.13,199.14-88.9,281.15-69.29,81.43-160.26,130.32-270.68,143.51-123.87,14.79-234.29-16.97-329.31-93.05-33.97-27.2-62.33-59.39-84.82-95.83-2.71-4.39-5.08-9.11-11.26-10.11-9.08-15.37-14.55-31.99-19.15-48.9-4.64-2.43-5.61-6.82-6.68-11.13-16.01-64.45-16.83-128.93-.5-193.45,1.27-5.01,2.66-9.89,7.17-13.33Z"/>
          <path class="cls-8" d="M651.88,978.89c19.9.01,39.8-.18,59.69.1,21.1.29,40.02,5.4,52.8,22.81,3.41,4.65,8.13,5.84,14.05,5.78,24.24-.25,48.48.03,72.72-.12,11.1-.07,20.4,3.24,28.18,10.77,12.34,11.93,24.87,23.68,37.38,35.44,2.86,2.69,5.07,5.71,6.67,9.17,4.19,9.08,1.23,15.31-8.81,17.83-5.55,1.39-11.18,2.19-17.05,2.19-214.17-.09-428.35-.08-642.52-.09-4.33,0-8.56-.27-12.87-1.26-18.24-4.2-21.11-12.27-8.25-25.39,11.98-12.22,24.3-24.15,36.71-35.99,9-8.59,19.86-12.93,33.04-12.72,22.79.35,45.59-.11,68.37.18,6.63.09,11.98-1.07,16.13-6.2,14.49-17.87,34.53-23.19,57.45-22.54,15.54.44,31.12-.28,46.66.24,7.72.26,9.76-2.2,9.71-9.23-.24-36.95.03-73.91.12-110.86,3.79-3.63,8.57-2.99,13.17-2.43,40.83,4.91,81.64,4.85,122.48.06,4.28-.5,8.66-.92,12.19,2.3,1.29,36.4.17,72.8.63,109.2.05,3.58-1.35,7.42,1.32,10.76Z"/>
          <path class="cls-7" d="M649.35,859.02c-30.76,3.47-61.62,4.33-92.59,4.19-18.41-.08-36.32-4.45-54.67-4.22-20.22-6.77-41.58-9.53-61.94-16.09-48.52-15.63-92.3-38.71-132.3-68.8-51.27-38.57-89.45-86.42-117.87-141.55-1.54-2.99-2.29-6.34-3.42-9.52,4.01-3.15,6.26-3.17,9.36,1.91,21.95,36.07,49.23,68.24,81.91,96.36,37.07,31.9,79.2,56.28,125.67,74.1,59.48,22.8,121.81,31.04,185.38,26.51,81.64-5.82,155.67-32.36,220.69-79.57,51.59-37.45,92.09-83.56,120.31-138.75,18.62-36.42,30.71-74.75,36.91-114.87,4.01-25.93,5.56-51.94,3.64-77.8-3.49-47.05-15.04-92.53-36.31-135.59-15.84-32.07-35.46-61.89-59.25-89.31-1.57-1.82-5.46-3.21-2.17-6.54,23.35,21.67,44.35,45.16,62.1,71.09,21.32,31.15,37.22,64.66,48.89,99.98.63,1.92,1.54,3.76,2.32,5.64,4.18,3.24,5.4,7.85,6.6,12.48,16.62,64.31,16.37,128.63.01,192.94-1.18,4.62-2.33,9.27-6.63,12.44-12.84,38.47-29.67,75.3-53.8,108.76-21.16,29.36-45.23,56.33-73.99,79.84-28.12,22.99-58.21,42.87-91.38,58.51-36.42,17.17-74.76,29.47-115.12,35.79-.79.7-1.1,1.86-2.37,2.08Z"/>
          <path class="cls-2" d="M167.4,356.23c-15.12,46.01-17.59,93.36-14.79,140.88,1.54,26.02,6.73,51.88,14.8,77.03-13.74-.03-27.48.09-41.22-.13-21.83-.36-34.78-12.79-34.8-33.33-.05-50.49-.05-100.99,0-151.48.02-21.02,12.55-32.81,34.79-32.92,13.74-.07,27.48-.04,41.22-.05Z"/>
          <path class="cls-2" d="M986,574.04c20.95-72.62,21.04-145.23.02-217.85,13.73.03,27.46.03,41.19.1,20.23.11,34.32,11.6,34.51,30.36.54,52.15.47,104.3.04,156.45-.14,17.57-14.67,30.38-33.49,30.86-14.08.36-28.18.08-42.27.08Z"/>
          <path class="cls-4" d="M649.35,859.02c.79-.69,1.58-1.39,2.37-2.08.05,40.65.11,81.3.16,121.95-4.14-2.73-2.38-6.81-2.4-10.29-.15-36.53-.12-73.06-.14-109.58Z"/>
          <path class="cls-1" d="M315.05,464.34c-1.02-133.35,118.29-248.66,269.22-244.43,137.49,3.85,255.43,108.15,253.69,248.79-1.64,132.34-116.11,243.57-267.09,241.35-139.26-2.04-256.25-108.25-255.82-245.71Z"/>
          <path class="cls-9" d="M614.92,144.34c0,17.87-14.48,31.19-33.7,31.02-18.46-.16-32.53-13.64-32.5-31.14.03-17.61,15.16-31.66,33.71-31.3,18.18.35,32.5,14.19,32.49,31.41Z"/>
          <path class="cls-9" d="M373.13,464.79c.08-105.9,90.31-190.42,203.23-190.37,113.84.05,203.53,84.97,203.38,192.56-.15,104.97-91.92,188.64-206.7,188.48-109.82-.16-199.99-86.17-199.91-190.67Z"/>
          <path class="cls-3" d="M725.49,465.77c2.97,74.49-69.02,140.25-150.19,139.52-77.69-.7-149.44-60.06-149.06-140.35.38-78.53,65.61-140.64,151.12-140.75,82.78-.1,151.12,64.89,148.12,141.58Z"/>
          <path class="cls-9" d="M532.29,374.15c55.69-24.78,122.62,1.49,143.29,54.64,13.59,34.95,9.48,68.93-16.78,99.05-26.82,30.76-62.04,41.46-102.18,34.81-44.63-7.4-72.64-34.26-84.15-75.01-5.98-21.19-5.01-42.61,7.79-62.22,4.83-.97,8.08,2.38,11.93,3.95,14.71,6.01,30.42,3.27,40.65-7.31,9.7-10.03,11.25-25.06,3.86-37.81-1.86-3.22-5.02-5.92-4.41-10.08Z"/>
          <path class="cls-6" d="M532.29,374.15c24.03,23.28,9.59,55.46-18.21,60.81-13.12,2.53-23.92-2.11-33.82-9.55-13.67-17.85-13.93-33.93-1.34-47.86,10.57-11.69,33.46-17.61,53.37-3.4Z"/>
        </g>
        <g>
          <path class="cls-5" d="M898.36,766.8c31.7,8.44,55.74,14.75,84.68,2.73,68.08-28.27,54.01-119.05-29.93-141.79-40.25-10.9-80.45-1.61-99.12,26.43-11.04,16.59-8.35,32.01-31.38,41.94-46.53,20.05-107.29-19.11-93.83-65.8,25.68-89.06,139.81-133.37,252.48-99.66,92.83,23.61,160.46,104.24,168.93,179.06,11.65,103.01-82.28,174.71-204.34,169.91-12.19,41.07-66.39,52.31-106.56,18.91-29.11-24.21-18.12-49.22-10.08-74.05,10.58-32.65,17.97-61.51,69.15-57.69Z"/>
          <path class="cls-5" d="M828.31,1053.56c-84.54-25.66-60.8-116.97,22.38-98.03l.84.21c77.73,19.86,58.26,120.15-23.22,97.82Z"/>
        </g>
      </g>
      <text class="cls-10" transform="translate(137.2 1186.66)"><tspan x="0" y="0">No Came</tspan><tspan class="cls-12" x="410.55" y="0">r</tspan><tspan x="446.97" y="0">a </tspan><tspan class="cls-11" x="524.95" y="0">F</tspan><tspan x="578.61" y="0">ound!</tspan></text>
    </g>
  </g>
</svg>