<svg width="16" height="19" viewBox="0 0 16 19" fill="none" xmlns="http://www.w3.org/2000/svg">
<path d="M15.5968 6.79498L12.3954 5.56077C12.3254 5.53381 12.2507 5.5209 12.1757 5.52279C12.1007 5.52468 12.0268 5.54133 11.9582 5.57179C11.8896 5.60224 11.8277 5.64591 11.776 5.70029C11.7243 5.75468 11.6838 5.81872 11.6568 5.88875C11.6298 5.95878 11.6169 6.03344 11.6188 6.10846C11.6207 6.18349 11.6374 6.2574 11.6678 6.32599C11.6983 6.39457 11.742 6.45649 11.7963 6.5082C11.8507 6.55991 11.9148 6.60041 11.9848 6.62737L13.6365 7.26352C13.6723 7.27743 13.703 7.30182 13.7247 7.3335C13.7463 7.36517 13.7579 7.40265 13.7579 7.44103C13.7579 7.47941 13.7463 7.51689 13.7247 7.54857C13.703 7.58024 13.6723 7.60464 13.6365 7.61855L8.06809 9.84621C8.02274 9.86371 7.9725 9.86371 7.92714 9.84621L2.33893 7.6094C2.30284 7.5958 2.27176 7.57153 2.24982 7.53981C2.22788 7.5081 2.21613 7.47045 2.21613 7.43189C2.21613 7.39333 2.22788 7.35568 2.24982 7.32397C2.27176 7.29225 2.30284 7.26798 2.33893 7.25438L4.01044 6.62737C4.08584 6.60519 4.15585 6.56769 4.2161 6.51723C4.27634 6.46676 4.32553 6.40441 4.36059 6.33407C4.39564 6.26373 4.41581 6.18691 4.41983 6.10842C4.42385 6.02993 4.41163 5.95146 4.38394 5.87791C4.35626 5.80435 4.31369 5.7373 4.25891 5.68095C4.20414 5.62459 4.13832 5.58014 4.06558 5.55038C3.99285 5.52061 3.91475 5.50617 3.83618 5.50796C3.75761 5.50975 3.68025 5.52773 3.60894 5.56077L0.364959 6.77974C0.256143 6.82404 0.16316 6.90003 0.0980839 6.99785C0.0330075 7.09567 -0.00115594 7.2108 2.98544e-05 7.32828V14.1218C0.000102969 14.1925 0.0198859 14.2619 0.0571606 14.322C0.0944352 14.3822 0.147728 14.4307 0.211064 14.4623L7.82963 18.248H7.84029C7.88991 18.2725 7.94453 18.2853 7.9999 18.2853C8.05527 18.2853 8.10989 18.2725 8.15951 18.248H8.17018L15.7887 14.4623C15.8519 14.4306 15.9051 14.382 15.9422 14.3219C15.9793 14.2617 15.999 14.1924 15.999 14.1218V7.23686C15.9998 7.22771 16.0356 6.96335 15.5968 6.79498Z" fill="black"/>
<path d="M7.3907 7.69475C7.46166 7.78937 7.55368 7.86617 7.65947 7.91906C7.76526 7.97195 7.88191 7.99949 8.00018 7.99949C8.11846 7.99949 8.23511 7.97195 8.3409 7.91906C8.44668 7.86617 8.5387 7.78937 8.60967 7.69475L10.8952 4.64732C10.9801 4.53413 11.0318 4.39954 11.0445 4.25863C11.0572 4.11771 11.0305 3.97605 10.9672 3.8495C10.9039 3.72295 10.8066 3.61652 10.6863 3.54214C10.5659 3.46775 10.4272 3.42835 10.2858 3.42835H9.14297V1.14278C9.14297 0.839699 9.02257 0.549027 8.80825 0.334714C8.59394 0.1204 8.30327 0 8.00018 0C7.6971 0 7.40643 0.1204 7.19211 0.334714C6.9778 0.549027 6.8574 0.839699 6.8574 1.14278V3.42835H5.71462C5.57313 3.42835 5.43444 3.46775 5.31408 3.54214C5.19373 3.61652 5.09646 3.72295 5.03319 3.8495C4.96992 3.97605 4.94313 4.11771 4.95584 4.25863C4.96854 4.39954 5.02024 4.53413 5.10513 4.64732L7.3907 7.69475Z" fill="black"/>
</svg>
