<?xml version="1.0" encoding="UTF-8"?>
<svg id="Layer_2" data-name="Layer 2" xmlns="http://www.w3.org/2000/svg" viewBox="0 0 1133.86 1133.86">
  <defs>
    <style>
      .cls-1 {
        fill: #3574ba;
      }

      .cls-1, .cls-2, .cls-3, .cls-4, .cls-5, .cls-6 {
        stroke-width: 0px;
      }

      .cls-2 {
        fill: #5786c5;
      }

      .cls-3 {
        fill: #b9b9b9;
      }

      .cls-4 {
        fill: #fff;
      }

      .cls-5 {
        fill: #2d4357;
      }

      .cls-6 {
        fill: #dbdbdb;
      }
    </style>
  </defs>
  <g id="Capa_1" data-name="Capa 1">
    <g>
      <path class="cls-4" d="M566.72.33C752.31.33,937.91.44,1123.51,0c9.24-.02,10.36,2.9,10.35,13.14-.26,369.71-.25,739.41-.02,1109.12,0,9.38-1.41,11.59-9.39,11.58-371.55-.31-743.11-.31-1114.66.01-8.59,0-9.78-2.95-9.77-12.43C.23,751.72.23,382.01,0,12.3,0,2.53,1.65.05,9.93.07c185.6.34,371.19.26,556.79.26Z"/>
      <path class="cls-6" d="M770.94,990.13c-3.62.15-7.24.43-10.85.43-175.37.02-350.73.05-526.1,0-47.54-.01-87.1-46.6-88.03-103.41-3.82-5.08-3.41-11.45-3.41-17.57-.05-206.08-.19-412.16.05-618.24.07-61.75,47.69-107.83,89.5-107.58,225.52,1.33,451.05.67,676.58.61,3.99,0,7.99-.18,11.82,1.56,16.71,3.6,33.13,7.83,47.23,20.69,23.76,21.67,37.46,49.75,37.51,86.34.16,130.15.1,260.31.12,390.46-4.09,2.55-7.74-.07-11.25-1.84-16.31-8.17-33.13-13.71-50.64-16.53-5.07-.82-11-.59-14.13-7.51-2.08-7.3-1.47-14.86-1.48-22.32-.04-106.76-.03-213.52-.03-320.28,0-5.29.14-10.59-.14-15.88-.79-14.85-5.23-20.21-17.59-21.25-4.34-.37-8.7-.21-13.05-.21-214.95,0-429.9,0-644.84,0-27.13,0-28.77,2.02-28.78,35.52,0,197.64-.02,395.28.06,592.92,0,9.1-1.41,18.62,3.25,26.95,4.54,5.82,10.42,7.67,16.67,8.32,5.05.53,10.13.33,15.19.33,152.01,0,304.03,0,456.04.03,6.5,0,13.04-.52,19.47.96,4.76,1.28,7.08,5.44,8.45,10.76,5.95,23.1,14.09,44.91,25.65,64.75,2.02,3.47,4.42,7.14,2.72,12.01Z"/>
      <path class="cls-3" d="M920.5,145.92c-4.01,4.62-8.99,2.47-13.49,2.47-223.25.12-446.5,1.08-669.74-.74-42.86-.35-83.52,37.43-90.55,89.89-.69,5.17-.73,10.51-.73,15.77-.04,211.28-.03,422.56-.03,633.84-47.61-1.23-84.64-48.54-84.67-108.84-.11-171.61-.04-343.22-.04-514.83,0-36.62.2-73.23-.04-109.85-.43-63.59,42.76-109.25,88.99-109.03,227.99,1.08,455.99.46,683.99.54,46.79.02,84.5,44.26,86.32,100.79Z"/>
      <path class="cls-1" d="M770.94,990.13c-14.87-26.13-26.59-54.11-33.57-84.87-6.24-6.55-5.63-16.13-6.29-24.49-5.12-64.06,5.21-123.24,38.55-174.88,6.28-9.73,13.82-17.94,20.72-26.92,36.46-40.64,79.46-61.38,128.85-62.58,4.32-.11,8.74-.33,12.45,3.26,25.73,2.58,50.25,10.74,73.71,23.75,41.13,27.27,71.85,66.05,90.13,119.12,46.37,134.61-26,291.97-144.17,312.97-69.16,12.29-126.96-13.68-173.68-76.72-2.18-2.94-4.45-5.76-6.69-8.64Z"/>
      <path class="cls-2" d="M931.64,619.66c-53.21-2.13-99.56,19-139.76,61-5.79-1.88-8.54-7.82-11.65-13.16-7.13-12.24-14.58-24.2-22.57-35.58-13.05-18.6-30-19.51-44.53-2.51-16.45,19.25-32.31,39.25-48.52,58.82-20.79,25.09-41.42,23.53-59.75-5.14-26.48-41.4-52.42-83.29-78.38-125.18-8.06-13.01-17.64-22.38-32.26-18.62-6.56,1.69-12.28,5.22-16.67,11.59-37.19,54.04-76.15,106.22-114.41,159.13-33.71,46.63-66.9,93.83-101.02,140.03-8.94,12.11-17.7,24.46-26.38,36.88-2.93,4.19-5.82,9.31-11.32,9.2-6.41-5.16-4.73-13.29-4.75-20.5-.12-76.74-.08-153.48-.08-230.23,0-126.58,0-253.16,0-379.74,0-27.55,4.22-32.84,26.28-32.84,219.6-.01,439.21-.01,658.81,0,22.35,0,26.81,5.39,26.83,32.24.05,118.2.09,236.4.13,354.6Z"/>
      <path class="cls-5" d="M224.42,896.12c21.55-26.17,40.62-55.04,60.75-82.75,56.61-77.92,112.82-156.28,169.18-234.47,6.21-8.61,12.44-17.2,18.47-26,16.95-24.73,38.61-24.5,54.75,1.23,26.15,41.66,51.98,83.63,78.04,125.38,6.38,10.22,13.06,20.32,24.52,22.31,11.5,2,21.31-1.8,29.62-12.13,17-21.12,34.18-42.02,51.5-62.76,15.73-18.84,34.92-17.64,48.9,3.38,10.93,16.44,21.18,33.54,31.73,50.35-17.89,23.14-33.62,47.79-44.17,77.47-17.03,47.92-18.37,96.9-10.33,147.13-165.02.06-330.04.13-495.06.15-6.98,0-13.88-.66-17.9-9.3Z"/>
      <path class="cls-4" d="M945.84,799.39c-3.98,6.75-2.73,11.75-2.74,16.39-.11,49.37.01,98.75-.14,148.12-.05,16.87-7.97,28.3-19.71,29.51-14.87,1.53-24.77-10.1-24.82-29.89-.13-49.37-.05-98.75-.06-148.12,0-4.33,0-8.67,0-17.03-10.41,12.63-18.94,22.93-27.42,33.28-6.55,8-14.1,12.46-23.51,9.24-15.97-5.46-22.47-29.53-10.86-44.46,22.4-28.81,45.63-56.67,69.01-84.31,9.04-10.69,21.15-10.44,30.36.42,23.15,27.29,45.97,55.02,68.5,83.07,8.71,10.84,8.01,28.16-.35,38.19-8.76,10.52-21.78,11.23-31.33.27-9.37-10.75-17.76-22.76-26.94-34.68Z"/>
      <path class="cls-4" d="M634.57,535.43c-31.26.14-56.79-30.32-57.27-68.34-.5-38.71,25.41-70.71,57.54-71.07,31.18-.35,57.1,31.39,57.14,69.98.05,38.6-25.33,69.29-57.41,69.43Z"/>
    </g>
  </g>
</svg>