<svg width="16" height="16" viewBox="0 0 16 16" fill="none" xmlns="http://www.w3.org/2000/svg">
<path d="M13.7255 3.5537C13.7011 3.55085 13.6772 3.54588 13.6521 3.54588H11.6396C11.6275 3.54588 11.6162 3.54898 11.6043 3.54965C11.3862 3.52823 11.1627 3.61928 11.0166 3.81399L9.30313 6.09344H7.38397C7.01351 6.09344 6.71312 6.41083 6.71312 6.80232C6.71312 7.19382 7.01348 7.5112 7.38397 7.5112H9.62709C9.83165 7.5112 10.0251 7.41255 10.1523 7.24313L10.9687 6.15691V9.57139L10.9688 15.2424C10.9688 15.6339 11.2691 15.9513 11.6396 15.9513C12.0101 15.9513 12.3105 15.6339 12.3105 15.2424V9.57136H12.9813V15.2424C12.9813 15.6338 13.2817 15.9512 13.6521 15.9512C14.0226 15.9512 14.323 15.6339 14.323 15.2424V8.84085L14.323 5.15719C14.5255 5.32351 14.6584 5.58046 14.6584 5.87192V8.37514C14.6584 8.7666 14.9587 9.08402 15.3292 9.08402C15.6997 9.08402 16 8.7666 16 8.37514V5.87192C16 4.41358 14.7466 3.43503 13.7255 3.5537ZM1.49894 7.31769L5.58683 2.15618C5.70556 2.00614 5.68689 1.78255 5.54473 1.65687C5.4029 1.53141 5.19131 1.55078 5.07222 1.70136L0.984359 6.86287C0.86563 7.01292 0.884296 7.23651 1.02646 7.36218C1.16852 7.48761 1.37945 7.4682 1.49894 7.31769Z" fill="#707070"/>
<path d="M0.988281 12.4113C2.68705 11.8238 4.16294 13.8459 3.1752 15.4382H5.82498L7.83747 9.67859V7.69727H0.988281V12.4113Z" fill="#707070"/>
<path d="M1.57648 12.668C0.704375 12.668 0 13.4123 0 14.3338C0 15.2554 0.704375 15.9997 1.57648 15.9997C2.44858 15.9997 3.15296 15.2554 3.15296 14.3338C3.15292 13.4123 2.44855 12.668 1.57648 12.668ZM1.57648 15.3086C1.06663 15.3086 0.654077 14.8726 0.654077 14.3338C0.654077 13.7951 1.06663 13.3591 1.57648 13.3591C2.08633 13.3591 2.49888 13.7951 2.49888 14.3338C2.49888 14.8726 2.08633 15.3086 1.57648 15.3086Z" fill="#707070"/>
<path d="M12.6463 2.8354C13.3873 2.8354 13.9879 2.20067 13.9879 1.4177C13.9879 0.634725 13.3873 0 12.6463 0C11.9054 0 11.3047 0.634725 11.3047 1.4177C11.3047 2.20067 11.9054 2.8354 12.6463 2.8354Z" fill="#707070"/>
<path d="M6.94318 3.89844H5.60156V5.31614H6.94318V3.89844Z" fill="#707070"/>
<path d="M4.09906 5.86417L4.45703 7.23047L5.75001 6.8522L5.39204 5.4859L4.09906 5.86417Z" fill="#707070"/>
</svg>
